<?xml version="1.0" encoding="utf-8"?>
<!-- Generator: Adobe Illustrator 27.5.0, SVG Export Plug-In . SVG Version: 6.00 Build 0)  -->
<svg version="1.1" xmlns="http://www.w3.org/2000/svg" xmlns:xlink="http://www.w3.org/1999/xlink" x="0px" y="0px"
	 viewBox="0 0 500 500" style="enable-background:new 0 0 500 500;" xml:space="preserve">
<g id="Background_Simple">
	<g>
		<path style="fill:#92E3A9;" d="M468.325,247.388c-4.747,40.2-23.102,86.94-59.761,108.411
			c-55.388,32.449-50.752,82.357-158.864,104.054c-16.856,3.385-32.852,4.809-47.936,4.527c-8.109-0.15-15.958-0.804-23.527-1.918
			c-68.711-10.037-114.951-57.798-131.915-115.452c-22.325-75.824,22.252-125.465,51.799-155.374s51.187-123.1,157.3-145.264
			c16.18-3.372,32.725-5.093,49.266-4.68c37.755,0.926,78.935,13.324,107.43,39.199c2.139,1.944,4.22,3.961,6.248,6.037
			C457.97,127.58,474.8,192.583,468.325,247.388z"/>
		<path style="opacity:0.7;fill:#FFFFFF;" d="M468.325,247.388c-4.747,40.2-23.102,86.94-59.761,108.411
			c-55.388,32.449-50.752,82.357-158.864,104.054c-16.856,3.385-32.852,4.809-47.936,4.527c-8.109-0.15-15.958-0.804-23.527-1.918
			c-68.711-10.037-114.951-57.798-131.915-115.452c-22.325-75.824,22.252-125.465,51.799-155.374s51.187-123.1,157.3-145.264
			c16.18-3.372,32.725-5.093,49.266-4.68c37.755,0.926,78.935,13.324,107.43,39.199c2.139,1.944,4.22,3.961,6.248,6.037
			C457.97,127.58,474.8,192.583,468.325,247.388z"/>
	</g>
</g>
<g id="Floor">
	<g>
		<line style="fill:none;stroke:#263238;stroke-miterlimit:10;" x1="50.365" y1="429.253" x2="29.893" y2="429.253"/>
		<line style="fill:none;stroke:#263238;stroke-miterlimit:10;" x1="490.371" y1="429.253" x2="61.45" y2="429.253"/>
	</g>
</g>
<g id="Graphics">
	<g>
		<g style="opacity:0.3;">
			<path style="fill:none;stroke:#000000;stroke-linecap:round;stroke-linejoin:round;stroke-miterlimit:10;" d="M167.538,249.639
				c-38.858-10.923-67.346-46.619-67.346-88.968c0-38.276,23.272-71.117,56.438-85.145"/>
			<path style="fill:none;stroke:#000000;stroke-linecap:round;stroke-linejoin:round;stroke-miterlimit:10;" d="M201.094,252.693
				c-2.798,0.255-5.632,0.385-8.496,0.385c-6.595,0-13.028-0.691-19.232-2.004"/>
			<polyline style="fill:none;stroke:#000000;stroke-linecap:round;stroke-linejoin:round;stroke-miterlimit:10;" points="
				160.974,117.237 189.981,160.671 189.981,272.532 			"/>
			
				<line style="fill:none;stroke:#000000;stroke-linecap:round;stroke-linejoin:round;stroke-miterlimit:10;" x1="118.523" y1="53.673" x2="158.607" y2="113.693"/>
		</g>
		<g style="opacity:0.3;">
			<path style="fill:none;stroke:#000000;stroke-linecap:round;stroke-linejoin:round;stroke-miterlimit:10;" d="M412.259,118.714
				c-3.483-4.075-7.464-7.717-11.848-10.825c-7.623-5.398-16.467-9.191-26.034-10.89c-3.69-0.657-7.492-0.995-11.379-0.995
				c-35.788,0-64.798,29-64.798,64.788c0,13.669,4.234,26.353,11.472,36.811c4.365,6.318,9.83,11.829,16.11,16.242
				c10.534,7.398,23.367,11.745,37.215,11.745c35.779,0,64.788-29.01,64.788-64.798
				C427.788,144.729,421.948,130.036,412.259,118.714z M383.68,216.471c-6.44,2.393-13.408,3.701-20.681,3.701
				c-12.693,0-24.447-3.981-34.098-10.768c-5.764-4.037-10.768-9.088-14.768-14.88c-6.638-9.576-10.515-21.199-10.515-33.732
				c0-32.793,26.587-59.381,59.38-59.381c3.558,0,7.041,0.31,10.43,0.911c8.769,1.559,16.871,5.032,23.855,9.989
				c4.028,2.845,7.68,6.178,10.862,9.923c8.881,10.365,14.233,23.837,14.233,38.558c0,22.33-12.328,41.783-30.549,51.923"/>
			<path style="fill:none;stroke:#000000;stroke-linecap:round;stroke-linejoin:round;stroke-miterlimit:10;" d="M412.259,118.714
				c-3.483-4.075-7.464-7.717-11.848-10.825c-7.623-5.398-16.467-9.191-26.034-10.89c-3.69-0.657-7.492-0.995-11.379-0.995
				c-35.788,0-64.798,29-64.798,64.788c0,13.669,4.234,26.353,11.472,36.811c4.365,6.318,9.83,11.829,16.11,16.242
				c10.534,7.398,23.367,11.745,37.215,11.745c35.779,0,64.788-29.01,64.788-64.798
				C427.788,144.729,421.948,130.036,412.259,118.714z"/>
			<g>
				<path style="fill:none;stroke:#000000;stroke-linecap:round;stroke-linejoin:round;stroke-miterlimit:10;" d="M411.049,99.915
					c-1.067-0.843-2.156-1.66-3.268-2.447c-9.125-6.468-19.706-11.012-31.159-13.04c-4.422-0.779-8.975-1.192-13.622-1.192
					c-42.839,0-77.556,34.727-77.556,77.556c0,16.364,5.07,31.554,13.726,44.059c5.229,7.567,11.773,14.157,19.293,19.443
					c12.608,8.853,27.968,14.054,44.538,14.054c42.829,0,77.547-34.727,77.547-77.556c0-19.227-7.004-36.821-18.579-50.368
					c-1.015-1.186-2.065-2.342-3.148-3.465 M362.999,225.59c-13.848,0-26.681-4.347-37.215-11.745
					c-6.281-4.412-11.745-9.923-16.11-16.242c-7.238-10.458-11.472-23.142-11.472-36.811c0-35.788,29.01-64.788,64.798-64.788
					c3.887,0,7.689,0.338,11.379,0.995c9.567,1.699,18.41,5.492,26.034,10.89c4.384,3.107,8.365,6.75,11.848,10.825
					c9.689,11.322,15.528,26.015,15.528,42.078C427.788,196.58,398.778,225.59,362.999,225.59z"/>
				<path style="fill:none;stroke:#000000;stroke-linecap:round;stroke-linejoin:round;stroke-miterlimit:10;" d="M318.991,87.541
					c12.854-7.74,27.912-12.192,44.008-12.192v7.886c-12.624,0-24.543,3.016-35.076,8.366"/>
				<path style="fill:none;stroke:#000000;stroke-linecap:round;stroke-linejoin:round;stroke-miterlimit:10;" d="M319.758,96.399
					c-20.699,13.927-34.315,37.572-34.315,64.393c0,16.364,5.07,31.554,13.726,44.059l-6.487,4.478
					c-9.529-13.782-15.125-30.502-15.125-48.537c0-28.339,13.8-53.458,35.046-69.002"/>
				<path style="fill:none;stroke:#000000;stroke-linecap:round;stroke-linejoin:round;stroke-miterlimit:10;" d="M362.999,96.004
					v5.408c-32.793,0-59.38,26.588-59.38,59.381c0,12.533,3.877,24.156,10.515,33.732l-4.46,3.079
					c-7.238-10.458-11.472-23.142-11.472-36.811C298.202,125.004,327.211,96.004,362.999,96.004z"/>
				<path style="fill:none;stroke:#000000;stroke-linecap:round;stroke-linejoin:round;stroke-miterlimit:10;" d="M400.411,107.889
					l-3.126,4.422c-6.985-4.957-15.087-8.431-23.855-9.989l0.948-5.323C383.944,98.698,392.788,102.491,400.411,107.889z"/>
				<path style="fill:none;stroke:#000000;stroke-linecap:round;stroke-linejoin:round;stroke-miterlimit:10;" d="M412.335,91.037
					l-4.553,6.431c-9.125-6.468-19.706-11.012-31.159-13.04l1.38-7.755C390.62,78.908,402.28,83.912,412.335,91.037z"/>
				<path style="fill:none;stroke:#000000;stroke-linecap:round;stroke-linejoin:round;stroke-miterlimit:10;" d="M357.73,246.074
					c-16.241-0.989-31.254-6.521-43.794-15.331l4.525-6.45c12.608,8.853,27.968,14.054,44.538,14.054
					c42.829,0,77.547-34.727,77.547-77.556c0-19.227-7.004-36.821-18.579-50.368l5.99-5.117
					c12.768,14.927,20.476,34.305,20.476,55.485c0,45.789-36.018,83.171-81.27,85.343"/>
			</g>
		</g>
		<g style="opacity:0.3;">
			<path style="fill:none;stroke:#000000;stroke-linecap:round;stroke-linejoin:round;stroke-miterlimit:10;" d="M107.581,306.51
				c-2.992,2.558-5.667,5.481-7.949,8.701c-3.964,5.598-6.75,12.093-7.997,19.118c-0.483,2.709-0.731,5.502-0.731,8.356
				c0,26.281,21.297,47.585,47.578,47.585c10.038,0,19.353-3.109,27.033-8.425c4.64-3.206,8.687-7.218,11.927-11.831
				c5.433-7.735,8.625-17.16,8.625-27.329c0-26.274-21.304-47.578-47.585-47.578C126.686,295.107,115.896,299.395,107.581,306.51z
				 M182.089,342.685c0,9.321-2.923,17.953-7.908,25.04c-2.965,4.233-6.674,7.908-10.928,10.845
				c-7.032,4.874-15.567,7.722-24.771,7.722c-24.082,0-43.607-19.525-43.607-43.607c0-2.613,0.228-5.171,0.669-7.66
				c1.144-6.439,3.695-12.389,7.336-17.519c2.089-2.958,4.537-5.64,7.287-7.977c7.611-6.522,17.505-10.452,28.315-10.452
				C162.564,299.078,182.089,318.603,182.089,342.685z"/>
			<path style="fill:none;stroke:#000000;stroke-linecap:round;stroke-linejoin:round;stroke-miterlimit:10;" d="M107.581,306.51
				c-2.992,2.558-5.667,5.481-7.949,8.701c-3.964,5.598-6.75,12.093-7.997,19.118c-0.483,2.709-0.731,5.502-0.731,8.356
				c0,26.281,21.297,47.585,47.578,47.585c10.038,0,19.353-3.109,27.033-8.425c4.64-3.206,8.687-7.218,11.927-11.831
				c5.433-7.735,8.625-17.16,8.625-27.329c0-26.274-21.304-47.578-47.585-47.578C126.686,295.107,115.896,299.395,107.581,306.51z
				 M182.089,342.685c0,9.321-2.923,17.953-7.908,25.04c-2.965,4.233-6.674,7.908-10.928,10.845
				c-7.032,4.874-15.567,7.722-24.771,7.722c-24.082,0-43.607-19.525-43.607-43.607c0-2.613,0.228-5.171,0.669-7.66
				c1.144-6.439,3.695-12.389,7.336-17.519c2.089-2.958,4.537-5.64,7.287-7.977c7.611-6.522,17.505-10.452,28.315-10.452
				C162.564,299.078,182.089,318.603,182.089,342.685z"/>
			<g>
				<path style="fill:none;stroke:#000000;stroke-linecap:round;stroke-linejoin:round;stroke-miterlimit:10;" d="M101.494,299.381
					c-3.585,3.068-6.784,6.564-9.514,10.417c-4.75,6.701-8.087,14.471-9.576,22.882c-0.572,3.247-0.875,6.591-0.875,10.004
					c0,31.459,25.502,56.954,56.954,56.954c12.017,0,23.172-3.723,32.355-10.08c5.557-3.84,10.397-8.646,14.278-14.168
					c6.501-9.259,10.321-20.538,10.321-32.707c0-31.452-25.502-56.947-56.954-56.947
					C124.362,285.737,111.442,290.88,101.494,299.381z M186.067,342.685c0,10.169-3.192,19.594-8.625,27.329
					c-3.24,4.612-7.287,8.625-11.927,11.831c-7.68,5.316-16.995,8.425-27.033,8.425c-26.281,0-47.578-21.303-47.578-47.585
					c0-2.854,0.248-5.647,0.731-8.356c1.248-7.025,4.033-13.52,7.997-19.118c2.282-3.22,4.957-6.143,7.949-8.701
					c8.315-7.115,19.104-11.403,30.9-11.403C164.763,295.107,186.067,316.41,186.067,342.685z"/>
				<path style="fill:none;stroke:#000000;stroke-linecap:round;stroke-linejoin:round;stroke-miterlimit:10;" d="M75.737,342.685
					h5.791c0,31.459,25.502,56.954,56.954,56.954c12.017,0,23.172-3.723,32.355-10.08l3.289,4.764
					c-10.121,6.998-22.4,11.107-35.644,11.107C103.831,405.43,75.737,377.336,75.737,342.685z"/>
				<path style="fill:none;stroke:#000000;stroke-linecap:round;stroke-linejoin:round;stroke-miterlimit:10;" d="M138.482,299.078
					c24.082,0,43.607,19.525,43.607,43.607c0,9.321-2.923,17.953-7.908,25.04c-2.965,4.233-6.674,7.908-10.928,10.845
					c-7.032,4.874-15.567,7.722-24.771,7.722c-24.082,0-43.607-19.525-43.607-43.607c0-2.613,0.228-5.171,0.669-7.66
					c1.144-6.439,3.695-12.389,7.336-17.519c2.089-2.958,4.537-5.64,7.287-7.977C117.778,303.008,127.672,299.078,138.482,299.078z"
					/>
				<path style="fill:none;stroke:#000000;stroke-linecap:round;stroke-linejoin:round;stroke-miterlimit:10;" d="M90.904,342.685
					h3.971c0,24.082,19.525,43.607,43.607,43.607c9.204,0,17.739-2.847,24.771-7.722l2.261,3.275
					c-7.68,5.316-16.995,8.425-27.033,8.425C112.201,390.269,90.904,368.966,90.904,342.685z"/>
				<path style="fill:none;stroke:#000000;stroke-linecap:round;stroke-linejoin:round;stroke-miterlimit:10;" d="M99.632,315.211
					l3.247,2.296c-3.64,5.129-6.191,11.079-7.336,17.519l-3.909-0.696C92.883,327.303,95.668,320.809,99.632,315.211z"/>
				<path style="fill:none;stroke:#000000;stroke-linecap:round;stroke-linejoin:round;stroke-miterlimit:10;" d="M87.257,306.455
					l4.723,3.344c-4.75,6.701-8.087,14.471-9.576,22.882l-5.695-1.014C78.349,322.401,82.024,313.839,87.257,306.455z"/>
				<path style="fill:none;stroke:#000000;stroke-linecap:round;stroke-linejoin:round;stroke-miterlimit:10;" d="M138.482,295.107
					c26.281,0,47.585,21.304,47.585,47.578c0,10.169-3.192,19.594-8.625,27.329l-3.261-2.289c4.985-7.087,7.908-15.719,7.908-25.04
					c0-24.082-19.525-43.607-43.607-43.607c-10.81,0-20.704,3.93-28.315,10.452l-2.585-3.02
					C115.896,299.395,126.686,295.107,138.482,295.107z"/>
				<path style="fill:none;stroke:#000000;stroke-linecap:round;stroke-linejoin:round;stroke-miterlimit:10;" d="M138.482,279.946
					c34.651,0,62.746,28.087,62.746,62.739c0,13.409-4.213,25.833-11.376,36.03l-4.736-3.323
					c6.501-9.259,10.321-20.538,10.321-32.707c0-31.452-25.502-56.947-56.954-56.947c-14.12,0-27.04,5.143-36.988,13.644
					l-3.757-4.399C108.698,285.606,122.928,279.946,138.482,279.946z"/>
			</g>
		</g>
		<g style="opacity:0.3;">
			<polyline style="fill:none;stroke:#000000;stroke-linecap:round;stroke-linejoin:round;stroke-miterlimit:10;" points="
				373.858,289.421 373.858,255.51 398.987,255.51 			"/>
			
				<line style="fill:none;stroke:#000000;stroke-linecap:round;stroke-linejoin:round;stroke-miterlimit:10;" x1="373.858" y1="296.039" x2="373.858" y2="293.754"/>
			<g>
				
					<line style="fill:none;stroke:#000000;stroke-linecap:round;stroke-linejoin:round;stroke-miterlimit:10;" x1="411.145" y1="255.51" x2="430.599" y2="255.51"/>
				
					<line style="fill:none;stroke:#000000;stroke-linecap:round;stroke-linejoin:round;stroke-miterlimit:10;" x1="411.145" y1="261.184" x2="430.599" y2="261.184"/>
				
					<line style="fill:none;stroke:#000000;stroke-linecap:round;stroke-linejoin:round;stroke-miterlimit:10;" x1="411.145" y1="266.858" x2="430.599" y2="266.858"/>
			</g>
		</g>
		
			<line style="opacity:0.3;fill:none;stroke:#000000;stroke-linecap:round;stroke-linejoin:round;stroke-miterlimit:10;" x1="146.217" y1="338.275" x2="138.788" y2="341.432"/>
		
			<line style="opacity:0.3;fill:none;stroke:#000000;stroke-linecap:round;stroke-linejoin:round;stroke-miterlimit:10;" x1="236.059" y1="300.092" x2="150.88" y2="336.293"/>
	</g>
</g>
<g id="Robot_Arm">
	<g>
		<g>
			<path style="fill:none;stroke:#263238;stroke-width:4;stroke-miterlimit:10;" d="M310.429,236.124
				c0,0,15.255-0.763,28.223-16.018c12.967-15.256,18.369-57.991,18.369-57.991"/>
			<path style="fill:none;stroke:#263238;stroke-width:4;stroke-miterlimit:10;" d="M359.247,156.796c0,0,8.391,32.036,0.763,55.682
				c-7.628,23.646-33.562,43.478-54.92,41.952"/>
			<path style="fill:none;stroke:#263238;stroke-width:4;stroke-miterlimit:10;" d="M335.601,171.288
				c0,0,13.73,62.547-25.934,76.277"/>
		</g>
		<g>
			<path style="fill:#263238;stroke:#263238;stroke-miterlimit:10;" d="M115.228,173.684L95.979,192.74l-3.556,13.265
				c-0.215,0.801,0.044,1.654,0.667,2.201v0c0.961,0.843,2.438,0.681,3.194-0.35l7.849-10.712l0.829,9.383
				c0.129,1.464,1.308,2.615,2.775,2.71l0,0c1.52,0.098,2.87-0.967,3.128-2.468l2.104-12.247l32.788-9.743L115.228,173.684z"/>
			
				<rect x="190.904" y="142.246" transform="matrix(0.953 -0.3029 0.3029 0.953 -37.1289 70.4342)" style="fill:#263238;stroke:#263238;stroke-miterlimit:10;" width="35.156" height="25.314"/>
			<polygon style="fill:#92E3A9;stroke:#263238;stroke-miterlimit:10;" points="178.847,149.804 135.571,165.419 153.863,199.327 
				188.216,176.127 			"/>
			<path style="fill:#263238;stroke:#263238;stroke-miterlimit:10;" d="M198.233,177.996l-5.805,1.845
				c-2.154,0.685-4.455-0.506-5.14-2.661l-9.279-29.19c-0.685-2.154,0.507-4.455,2.661-5.14l5.805-1.845
				c2.154-0.685,4.455,0.506,5.14,2.661l9.278,29.19C201.579,175.01,200.387,177.311,198.233,177.996z"/>
			<path style="fill:#263238;stroke:#263238;stroke-miterlimit:10;" d="M153.863,199.327c0,0-3.952-8.721,4.633-13.599
				c8.585-4.878,13.462,1.366,13.462,1.366l-3.873,2.58L153.863,199.327z"/>
			<path style="fill:#92E3A9;stroke:#263238;stroke-miterlimit:10;" d="M153.863,199.327c0,0,0.391-9.207,14.222-9.653l4.963,26.607
				l-13.831,1.338L153.863,199.327z"/>
			<path style="fill:#92E3A9;stroke:#263238;stroke-miterlimit:10;" d="M159.216,217.618l-7.385,12.923
				c-0.9,1.574-0.589,3.562,0.747,4.787l0,0c1.659,1.52,4.259,1.316,5.66-0.444l14.808-18.605L159.216,217.618z"/>
			<path style="fill:#263238;stroke:#263238;stroke-miterlimit:10;" d="M173.067,218.46l-13.25,1.72
				c-1.058,0.137-2.027-0.609-2.164-1.667l-0.045-0.344c-0.137-1.058,0.609-2.027,1.667-2.164l13.25-1.72
				c1.058-0.137,2.027,0.609,2.164,1.667l0.045,0.344C174.871,217.354,174.125,218.322,173.067,218.46z"/>
			<polygon style="fill:#92E3A9;stroke:#263238;stroke-miterlimit:10;" points="135.571,165.419 104.641,165.109 105.393,177.523 
				146.771,186.551 			"/>
			<polygon style="fill:#92E3A9;stroke:#263238;stroke-miterlimit:10;" points="104.641,165.109 82.447,165.861 83.576,177.523 
				105.393,177.523 			"/>
			<path style="fill:#92E3A9;stroke:#263238;stroke-miterlimit:10;" d="M82.447,165.861l-17.625,13.897
				c-1.148,0.905-1.563,2.457-1.02,3.814h0c0.72,1.801,2.832,2.594,4.56,1.712l15.214-7.762L82.447,165.861z"/>
			<path style="fill:#263238;stroke:#263238;stroke-miterlimit:10;" d="M82.177,177.23l-1.447-10.609
				c-0.133-0.972,0.548-1.868,1.52-2.002l0,0c0.974-0.134,1.871,0.548,2.004,1.521l1.447,10.609c0.133,0.972-0.548,1.868-1.52,2.002
				l0,0C83.207,178.885,82.31,178.204,82.177,177.23z"/>
			<path style="fill:#263238;stroke:#263238;stroke-miterlimit:10;" d="M103.993,176.113l-0.104-10.707
				c-0.009-0.981,0.778-1.785,1.759-1.795l0,0c0.983-0.011,1.788,0.778,1.797,1.761l0.104,10.707
				c0.009,0.981-0.778,1.785-1.759,1.795l0,0C104.807,177.885,104.002,177.096,103.993,176.113z"/>
			<polygon style="fill:#263238;stroke:#263238;stroke-miterlimit:10;" points="146.771,186.551 144.033,162.65 135.571,165.419 			
				"/>
			<polygon style="fill:#92E3A9;stroke:#263238;stroke-miterlimit:10;" points="135.571,165.419 99.48,173.167 104.197,186.376 
				146.771,186.551 			"/>
			<polygon style="fill:#92E3A9;stroke:#263238;stroke-miterlimit:10;" points="99.48,173.167 84.147,190.858 90.229,197.126 
				104.197,186.376 			"/>
			<path style="fill:#92E3A9;stroke:#263238;stroke-miterlimit:10;" d="M84.147,190.858l-7.751,14.874
				c-0.562,1.078-0.253,2.404,0.727,3.123l0,0c1.036,0.76,2.481,0.595,3.32-0.378l9.786-11.351L84.147,190.858z"/>
			<path style="fill:#263238;stroke:#263238;stroke-miterlimit:10;" d="M90.006,199.391l-8.303-6.761
				c-0.761-0.62-0.876-1.738-0.257-2.5l0,0c0.62-0.763,1.741-0.878,2.503-0.258l8.303,6.761c0.761,0.62,0.876,1.739,0.257,2.5l0,0
				C91.89,199.897,90.769,200.012,90.006,199.391z"/>
			<path style="fill:#263238;stroke:#263238;stroke-miterlimit:10;" d="M102.524,186.626l-4.189-13.056
				c-0.321-0.927,0.17-1.939,1.097-2.261l0,0c0.928-0.323,1.942,0.169,2.264,1.098l4.189,13.056c0.321,0.927-0.17,1.939-1.097,2.262
				l0,0C103.86,188.046,102.846,187.555,102.524,186.626z"/>
		</g>
		<g>
			<path style="fill:#92E3A9;stroke:#263238;stroke-miterlimit:10;" d="M319.355,139.483L319.355,139.483
				c-11.88-2.426-23.477,5.238-25.903,17.118L239.62,279.668l61.866,9.508l34.988-123.79
				C338.899,153.506,331.235,141.909,319.355,139.483z"/>
			<g>
				<path style="fill:#263238;" d="M288.385,244.321c-0.601,0-1.212-0.1-1.81-0.311c-2.839-1-4.329-4.112-3.329-6.95l19.629-55.723
					c1-2.839,4.112-4.332,6.95-3.329c2.839,1,4.329,4.112,3.329,6.95l-19.63,55.723C292.737,242.92,290.632,244.321,288.385,244.321
					z"/>
			</g>
		</g>
		<path style="fill:#92E3A9;stroke:#263238;stroke-miterlimit:10;" d="M387.84,417.813l9.99-71.493
			c3.566-16.559-7.699-32.723-25.159-36.105h0c-17.461-3.381-34.506,7.301-38.071,23.859l-51.516,83.739H387.84z"/>
		<g>
			<g>
				<path style="fill:#92E3A9;stroke:#263238;stroke-miterlimit:10;" d="M247.688,276.727L247.688,276.727
					c-7.602,13.249-3.025,30.151,10.224,37.754l86.932,62.421l35.851-70.23l-95.254-40.168
					C272.193,258.901,255.29,263.479,247.688,276.727z"/>
				<g>
					<path style="fill:#263238;" d="M312.35,325.317c-1.018,0-2.048-0.285-2.965-0.882l-25.236-16.408
						c-2.523-1.64-3.239-5.015-1.598-7.539c1.64-2.524,5.014-3.242,7.539-1.598l25.236,16.408c2.524,1.64,3.239,5.015,1.598,7.539
						C315.88,324.443,314.132,325.317,312.35,325.317z"/>
				</g>
			</g>
			
				<ellipse transform="matrix(0.8071 -0.5904 0.5904 0.8071 -131.7294 278.9248)" style="fill:#FFFFFF;stroke:#263238;stroke-miterlimit:10;" cx="360.971" cy="341.046" rx="39.631" ry="39.632"/>
			<g>
				
					<ellipse transform="matrix(0.8524 -0.5228 0.5228 0.8524 -125.0737 239.1738)" style="fill:#FFFFFF;stroke:#263238;stroke-miterlimit:10;" cx="361.168" cy="341.159" rx="27.118" ry="27.118"/>
				<g>
					<line style="fill:none;stroke:#263238;stroke-miterlimit:10;" x1="361.168" y1="341.159" x2="337.682" y2="327.683"/>
					<line style="fill:none;stroke:#263238;stroke-miterlimit:10;" x1="361.168" y1="341.159" x2="334.667" y2="335.6"/>
					<line style="fill:none;stroke:#263238;stroke-miterlimit:10;" x1="361.168" y1="341.159" x2="334.246" y2="344.061"/>
					<line style="fill:none;stroke:#263238;stroke-miterlimit:10;" x1="361.168" y1="341.159" x2="336.46" y2="352.239"/>
					<line style="fill:none;stroke:#263238;stroke-miterlimit:10;" x1="361.168" y1="341.159" x2="341.094" y2="359.331"/>
					<line style="fill:none;stroke:#263238;stroke-miterlimit:10;" x1="361.168" y1="341.159" x2="347.691" y2="364.645"/>
					<line style="fill:none;stroke:#263238;stroke-miterlimit:10;" x1="361.168" y1="341.159" x2="355.608" y2="367.66"/>
					<line style="fill:none;stroke:#263238;stroke-miterlimit:10;" x1="361.168" y1="341.159" x2="364.07" y2="368.081"/>
					<line style="fill:none;stroke:#263238;stroke-miterlimit:10;" x1="361.168" y1="341.159" x2="372.247" y2="365.867"/>
					<line style="fill:none;stroke:#263238;stroke-miterlimit:10;" x1="361.168" y1="341.159" x2="379.34" y2="361.234"/>
					<line style="fill:none;stroke:#263238;stroke-miterlimit:10;" x1="361.168" y1="341.159" x2="384.654" y2="354.636"/>
					<line style="fill:none;stroke:#263238;stroke-miterlimit:10;" x1="361.168" y1="341.159" x2="387.669" y2="346.719"/>
					<line style="fill:none;stroke:#263238;stroke-miterlimit:10;" x1="361.168" y1="341.159" x2="388.089" y2="338.257"/>
					<line style="fill:none;stroke:#263238;stroke-miterlimit:10;" x1="361.168" y1="341.159" x2="385.875" y2="330.08"/>
					<line style="fill:none;stroke:#263238;stroke-miterlimit:10;" x1="361.168" y1="341.159" x2="381.242" y2="322.987"/>
					<line style="fill:none;stroke:#263238;stroke-miterlimit:10;" x1="361.168" y1="341.159" x2="374.644" y2="317.673"/>
					<line style="fill:none;stroke:#263238;stroke-miterlimit:10;" x1="361.168" y1="341.159" x2="366.727" y2="314.659"/>
					<line style="fill:none;stroke:#263238;stroke-miterlimit:10;" x1="361.168" y1="341.159" x2="358.266" y2="314.238"/>
					<line style="fill:none;stroke:#263238;stroke-miterlimit:10;" x1="361.168" y1="341.159" x2="350.089" y2="316.452"/>
					<line style="fill:none;stroke:#263238;stroke-miterlimit:10;" x1="361.168" y1="341.159" x2="342.996" y2="321.085"/>
				</g>
			</g>
			
				<ellipse transform="matrix(0.265 -0.9642 0.9642 0.265 -63.5433 598.729)" style="fill:#263238;stroke:#263238;stroke-miterlimit:10;" cx="360.971" cy="341.046" rx="14.885" ry="14.885"/>
			
				<ellipse transform="matrix(0.1371 -0.9906 0.9906 0.1371 -54.7208 515.2728)" style="fill:#FFFFFF;stroke:#263238;stroke-miterlimit:10;" cx="268.378" cy="289.043" rx="30.785" ry="30.785"/>
			<g>
				
					<ellipse transform="matrix(0.1038 -0.9946 0.9946 0.1038 -46.959 525.9719)" style="fill:#FFFFFF;stroke:#263238;stroke-miterlimit:10;" cx="268.378" cy="289.043" rx="19.674" ry="19.674"/>
				<g>
					<line style="fill:none;stroke:#263238;stroke-miterlimit:10;" x1="268.378" y1="289.043" x2="251.339" y2="279.266"/>
					<line style="fill:none;stroke:#263238;stroke-miterlimit:10;" x1="268.378" y1="289.043" x2="249.152" y2="285.01"/>
					<line style="fill:none;stroke:#263238;stroke-miterlimit:10;" x1="268.378" y1="289.043" x2="248.846" y2="291.149"/>
					<line style="fill:none;stroke:#263238;stroke-miterlimit:10;" x1="268.378" y1="289.043" x2="250.453" y2="297.081"/>
					<line style="fill:none;stroke:#263238;stroke-miterlimit:10;" x1="268.378" y1="289.043" x2="253.814" y2="302.227"/>
					<line style="fill:none;stroke:#263238;stroke-miterlimit:10;" x1="268.378" y1="289.043" x2="258.601" y2="306.082"/>
					<line style="fill:none;stroke:#263238;stroke-miterlimit:10;" x1="268.378" y1="289.043" x2="264.345" y2="308.27"/>
					<line style="fill:none;stroke:#263238;stroke-miterlimit:10;" x1="268.378" y1="289.043" x2="270.483" y2="308.575"/>
					<line style="fill:none;stroke:#263238;stroke-miterlimit:10;" x1="268.378" y1="289.043" x2="276.416" y2="306.968"/>
					<line style="fill:none;stroke:#263238;stroke-miterlimit:10;" x1="268.378" y1="289.043" x2="281.562" y2="303.607"/>
					<line style="fill:none;stroke:#263238;stroke-miterlimit:10;" x1="268.378" y1="289.043" x2="285.417" y2="298.82"/>
					<line style="fill:none;stroke:#263238;stroke-miterlimit:10;" x1="268.378" y1="289.043" x2="287.604" y2="293.076"/>
					<line style="fill:none;stroke:#263238;stroke-miterlimit:10;" x1="268.378" y1="289.043" x2="287.91" y2="286.938"/>
					<line style="fill:none;stroke:#263238;stroke-miterlimit:10;" x1="268.378" y1="289.043" x2="286.303" y2="281.005"/>
					<line style="fill:none;stroke:#263238;stroke-miterlimit:10;" x1="268.378" y1="289.043" x2="282.942" y2="275.859"/>
					<line style="fill:none;stroke:#263238;stroke-miterlimit:10;" x1="268.378" y1="289.043" x2="278.155" y2="272.004"/>
					<line style="fill:none;stroke:#263238;stroke-miterlimit:10;" x1="268.378" y1="289.043" x2="272.411" y2="269.817"/>
					<line style="fill:none;stroke:#263238;stroke-miterlimit:10;" x1="268.378" y1="289.043" x2="266.273" y2="269.511"/>
					<line style="fill:none;stroke:#263238;stroke-miterlimit:10;" x1="268.378" y1="289.043" x2="260.34" y2="271.118"/>
					<line style="fill:none;stroke:#263238;stroke-miterlimit:10;" x1="268.378" y1="289.043" x2="255.194" y2="274.479"/>
				</g>
			</g>
			
				<ellipse transform="matrix(0.8498 -0.5271 0.5271 0.8498 -112.0398 184.8559)" style="fill:#263238;stroke:#263238;stroke-miterlimit:10;" cx="268.378" cy="289.043" rx="11.563" ry="11.563"/>
		</g>
		<g>
			<path style="fill:#92E3A9;stroke:#263238;stroke-miterlimit:10;" d="M284.06,132.588l-0.727,7.387l-15.033-0.871l0.434-6.66
				l-41.029-0.389c-11.105-0.908-20.844,7.357-21.752,18.462v0c-0.909,11.105,7.357,20.844,18.462,21.752l40.368,5.618l0.904-5.884
				l14.775,1.565l-0.57,6.422l77.606,10.799l1.88-57.487L284.06,132.588z"/>
			<g>
				<polygon style="fill:#263238;stroke:#263238;stroke-miterlimit:10;" points="283.334,139.975 276.367,139.571 273.475,172.827 
					280.45,173.566 				"/>
				<polygon style="fill:#263238;stroke:#263238;stroke-miterlimit:10;" points="271.337,172.485 274.221,139.501 268.301,139.103 
					265.686,172.002 				"/>
			</g>
			<g>
				
					<ellipse transform="matrix(0.0655 -0.9979 0.9979 0.0655 171.8761 507.7531)" style="fill:#FFFFFF;stroke:#263238;stroke-miterlimit:10;" cx="357.021" cy="162.114" rx="28.909" ry="28.909"/>
				<g>
					
						<ellipse transform="matrix(0.1213 -0.9926 0.9926 0.1213 152.9257 497.008)" style="fill:#FFFFFF;stroke:#263238;stroke-miterlimit:10;" cx="357.186" cy="162.128" rx="19.781" ry="19.781"/>
					<g>
						<line style="fill:none;stroke:#263238;stroke-miterlimit:10;" x1="357.186" y1="162.128" x2="337.5" y2="160.517"/>
						<line style="fill:none;stroke:#263238;stroke-miterlimit:10;" x1="357.186" y1="162.128" x2="337.966" y2="166.679"/>
						<line style="fill:none;stroke:#263238;stroke-miterlimit:10;" x1="357.186" y1="162.128" x2="340.313" y2="172.396"/>
						<line style="fill:none;stroke:#263238;stroke-miterlimit:10;" x1="357.186" y1="162.128" x2="344.312" y2="177.107"/>
						<line style="fill:none;stroke:#263238;stroke-miterlimit:10;" x1="357.186" y1="162.128" x2="349.571" y2="180.352"/>
						<line style="fill:none;stroke:#263238;stroke-miterlimit:10;" x1="357.186" y1="162.128" x2="355.575" y2="181.813"/>
						<line style="fill:none;stroke:#263238;stroke-miterlimit:10;" x1="357.186" y1="162.128" x2="361.737" y2="181.348"/>
						<line style="fill:none;stroke:#263238;stroke-miterlimit:10;" x1="357.186" y1="162.128" x2="367.454" y2="179"/>
						<line style="fill:none;stroke:#263238;stroke-miterlimit:10;" x1="357.186" y1="162.128" x2="372.165" y2="175.002"/>
						<line style="fill:none;stroke:#263238;stroke-miterlimit:10;" x1="357.186" y1="162.128" x2="375.41" y2="169.743"/>
						<line style="fill:none;stroke:#263238;stroke-miterlimit:10;" x1="357.186" y1="162.128" x2="376.871" y2="163.738"/>
						<line style="fill:none;stroke:#263238;stroke-miterlimit:10;" x1="357.186" y1="162.128" x2="376.405" y2="157.576"/>
						<line style="fill:none;stroke:#263238;stroke-miterlimit:10;" x1="357.186" y1="162.128" x2="374.058" y2="151.86"/>
						<line style="fill:none;stroke:#263238;stroke-miterlimit:10;" x1="357.186" y1="162.128" x2="370.059" y2="147.148"/>
						<line style="fill:none;stroke:#263238;stroke-miterlimit:10;" x1="357.186" y1="162.128" x2="364.8" y2="143.903"/>
						<line style="fill:none;stroke:#263238;stroke-miterlimit:10;" x1="357.186" y1="162.128" x2="358.796" y2="142.442"/>
						<line style="fill:none;stroke:#263238;stroke-miterlimit:10;" x1="357.186" y1="162.128" x2="352.634" y2="142.908"/>
						<line style="fill:none;stroke:#263238;stroke-miterlimit:10;" x1="357.186" y1="162.128" x2="346.917" y2="145.255"/>
						<line style="fill:none;stroke:#263238;stroke-miterlimit:10;" x1="357.186" y1="162.128" x2="342.206" y2="149.254"/>
						<line style="fill:none;stroke:#263238;stroke-miterlimit:10;" x1="357.186" y1="162.128" x2="338.961" y2="154.513"/>
					</g>
				</g>
				<path style="fill:#263238;stroke:#263238;stroke-miterlimit:10;" d="M357.906,151.292c-5.977-0.489-11.218,3.96-11.707,9.937
					c-0.489,5.977,3.96,11.218,9.937,11.707c5.977,0.489,11.218-3.96,11.707-9.937C368.331,157.023,363.883,151.781,357.906,151.292
					z"/>
			</g>
			<g>
				
					<ellipse transform="matrix(0.0552 -0.9985 0.9985 0.0552 134.5809 458.8235)" style="fill:#FFFFFF;stroke:#263238;stroke-miterlimit:10;" cx="309.729" cy="158.3" rx="17.522" ry="17.522"/>
				<g>
					
						<ellipse transform="matrix(0.9332 -0.3592 0.3592 0.9332 -36.1879 121.8675)" style="fill:#FFFFFF;stroke:#263238;stroke-miterlimit:10;" cx="309.829" cy="158.309" rx="11.989" ry="11.989"/>
					<g>
						<line style="fill:none;stroke:#263238;stroke-miterlimit:10;" x1="309.829" y1="158.309" x2="297.897" y2="157.332"/>
						<line style="fill:none;stroke:#263238;stroke-miterlimit:10;" x1="309.829" y1="158.309" x2="298.179" y2="161.067"/>
						<line style="fill:none;stroke:#263238;stroke-miterlimit:10;" x1="309.829" y1="158.309" x2="299.602" y2="164.532"/>
						<line style="fill:none;stroke:#263238;stroke-miterlimit:10;" x1="309.829" y1="158.309" x2="302.026" y2="167.388"/>
						<line style="fill:none;stroke:#263238;stroke-miterlimit:10;" x1="309.829" y1="158.309" x2="305.213" y2="169.355"/>
						<line style="fill:none;stroke:#263238;stroke-miterlimit:10;" x1="309.829" y1="158.309" x2="308.853" y2="170.24"/>
						<line style="fill:none;stroke:#263238;stroke-miterlimit:10;" x1="309.829" y1="158.309" x2="312.587" y2="169.958"/>
						<line style="fill:none;stroke:#263238;stroke-miterlimit:10;" x1="309.829" y1="158.309" x2="316.052" y2="168.535"/>
						<line style="fill:none;stroke:#263238;stroke-miterlimit:10;" x1="309.829" y1="158.309" x2="318.908" y2="166.112"/>
						<line style="fill:none;stroke:#263238;stroke-miterlimit:10;" x1="309.829" y1="158.309" x2="320.875" y2="162.924"/>
						<line style="fill:none;stroke:#263238;stroke-miterlimit:10;" x1="309.829" y1="158.309" x2="321.761" y2="159.285"/>
						<line style="fill:none;stroke:#263238;stroke-miterlimit:10;" x1="309.829" y1="158.309" x2="321.478" y2="155.55"/>
						<line style="fill:none;stroke:#263238;stroke-miterlimit:10;" x1="309.829" y1="158.309" x2="320.056" y2="152.085"/>
						<line style="fill:none;stroke:#263238;stroke-miterlimit:10;" x1="309.829" y1="158.309" x2="317.632" y2="149.229"/>
						<line style="fill:none;stroke:#263238;stroke-miterlimit:10;" x1="309.829" y1="158.309" x2="314.444" y2="147.262"/>
						<line style="fill:none;stroke:#263238;stroke-miterlimit:10;" x1="309.829" y1="158.309" x2="310.805" y2="146.377"/>
						<line style="fill:none;stroke:#263238;stroke-miterlimit:10;" x1="309.829" y1="158.309" x2="307.07" y2="146.659"/>
						<line style="fill:none;stroke:#263238;stroke-miterlimit:10;" x1="309.829" y1="158.309" x2="303.605" y2="148.082"/>
						<line style="fill:none;stroke:#263238;stroke-miterlimit:10;" x1="309.829" y1="158.309" x2="300.749" y2="150.505"/>
						<line style="fill:none;stroke:#263238;stroke-miterlimit:10;" x1="309.829" y1="158.309" x2="298.783" y2="153.693"/>
					</g>
				</g>
				<path style="fill:#263238;stroke:#263238;stroke-miterlimit:10;" d="M310.265,151.741c-3.623-0.296-6.8,2.4-7.096,6.023
					c-0.296,3.623,2.4,6.8,6.023,7.096c3.623,0.296,6.799-2.4,7.096-6.023C316.584,155.214,313.888,152.037,310.265,151.741z"/>
			</g>
			
				<ellipse transform="matrix(0.9557 -0.2942 0.2942 0.9557 -34.7477 73.4712)" style="fill:#FFFFFF;stroke:#263238;stroke-miterlimit:10;" cx="226.826" cy="152.228" rx="22.456" ry="22.456"/>
			
				<ellipse transform="matrix(0.7443 -0.6678 0.6678 0.7443 -44.5356 188.1261)" style="fill:#FFFFFF;stroke:#263238;stroke-miterlimit:10;" cx="223.432" cy="152.228" rx="22.456" ry="22.456"/>
			<g>
				
					<ellipse transform="matrix(0.9558 -0.2939 0.2939 0.9558 -34.8697 72.3814)" style="fill:#FFFFFF;stroke:#263238;stroke-miterlimit:10;" cx="223.432" cy="152.228" rx="14.351" ry="14.351"/>
				<g>
					<line style="fill:none;stroke:#263238;stroke-miterlimit:10;" x1="223.432" y1="152.228" x2="209.15" y2="151.06"/>
					<line style="fill:none;stroke:#263238;stroke-miterlimit:10;" x1="223.432" y1="152.228" x2="209.488" y2="155.531"/>
					<line style="fill:none;stroke:#263238;stroke-miterlimit:10;" x1="223.432" y1="152.228" x2="211.191" y2="159.678"/>
					<line style="fill:none;stroke:#263238;stroke-miterlimit:10;" x1="223.432" y1="152.228" x2="214.092" y2="163.096"/>
					<line style="fill:none;stroke:#263238;stroke-miterlimit:10;" x1="223.432" y1="152.228" x2="217.908" y2="165.45"/>
					<line style="fill:none;stroke:#263238;stroke-miterlimit:10;" x1="223.432" y1="152.228" x2="222.264" y2="166.51"/>
					<line style="fill:none;stroke:#263238;stroke-miterlimit:10;" x1="223.432" y1="152.228" x2="226.735" y2="166.173"/>
					<line style="fill:none;stroke:#263238;stroke-miterlimit:10;" x1="223.432" y1="152.228" x2="230.882" y2="164.47"/>
					<line style="fill:none;stroke:#263238;stroke-miterlimit:10;" x1="223.432" y1="152.228" x2="234.3" y2="161.568"/>
					<line style="fill:none;stroke:#263238;stroke-miterlimit:10;" x1="223.432" y1="152.228" x2="236.654" y2="157.753"/>
					<line style="fill:none;stroke:#263238;stroke-miterlimit:10;" x1="223.432" y1="152.228" x2="237.714" y2="153.397"/>
					<line style="fill:none;stroke:#263238;stroke-miterlimit:10;" x1="223.432" y1="152.228" x2="237.377" y2="148.926"/>
					<line style="fill:none;stroke:#263238;stroke-miterlimit:10;" x1="223.432" y1="152.228" x2="235.674" y2="144.779"/>
					<line style="fill:none;stroke:#263238;stroke-miterlimit:10;" x1="223.432" y1="152.228" x2="232.772" y2="141.361"/>
					<line style="fill:none;stroke:#263238;stroke-miterlimit:10;" x1="223.432" y1="152.228" x2="228.957" y2="139.006"/>
					<line style="fill:none;stroke:#263238;stroke-miterlimit:10;" x1="223.432" y1="152.228" x2="224.601" y2="137.946"/>
					<line style="fill:none;stroke:#263238;stroke-miterlimit:10;" x1="223.432" y1="152.228" x2="220.13" y2="138.284"/>
					<line style="fill:none;stroke:#263238;stroke-miterlimit:10;" x1="223.432" y1="152.228" x2="215.983" y2="139.987"/>
					<line style="fill:none;stroke:#263238;stroke-miterlimit:10;" x1="223.432" y1="152.228" x2="212.565" y2="142.888"/>
					<line style="fill:none;stroke:#263238;stroke-miterlimit:10;" x1="223.432" y1="152.228" x2="210.21" y2="146.704"/>
				</g>
			</g>
			<path style="fill:#263238;stroke:#263238;stroke-miterlimit:10;" d="M224.12,143.822c-4.643-0.38-8.714,3.076-9.094,7.719
				c-0.38,4.643,3.076,8.714,7.719,9.094c4.643,0.38,8.714-3.076,9.094-7.718C232.219,148.273,228.763,144.202,224.12,143.822z"/>
		</g>
		<g>
			<g>
				<path style="fill:#263238;stroke:#263238;stroke-miterlimit:10;" d="M287.86,412.698c0,2.492-2.143,4.512-4.786,4.512
					c-2.643,0-4.786-2.02-4.786-4.512c0-2.492,2.143-4.512,4.786-4.512C285.717,408.186,287.86,410.207,287.86,412.698z"/>
				<path style="fill:#263238;stroke:#263238;stroke-miterlimit:10;" d="M299.028,412.698c0,2.492-2.143,4.512-4.786,4.512
					s-4.786-2.02-4.786-4.512c0-2.492,2.143-4.512,4.786-4.512S299.028,410.207,299.028,412.698z"/>
				<path style="fill:#263238;stroke:#263238;stroke-miterlimit:10;" d="M310.197,412.698c0,2.492-2.143,4.512-4.786,4.512
					c-2.643,0-4.786-2.02-4.786-4.512c0-2.492,2.143-4.512,4.786-4.512C308.054,408.186,310.197,410.207,310.197,412.698z"/>
				<path style="fill:#263238;stroke:#263238;stroke-miterlimit:10;" d="M321.365,412.698c0,2.492-2.143,4.512-4.786,4.512
					s-4.786-2.02-4.786-4.512c0-2.492,2.143-4.512,4.786-4.512S321.365,410.207,321.365,412.698z"/>
				<path style="fill:#263238;stroke:#263238;stroke-miterlimit:10;" d="M332.533,412.698c0,2.492-2.143,4.512-4.786,4.512
					c-2.643,0-4.786-2.02-4.786-4.512c0-2.492,2.143-4.512,4.786-4.512C330.39,408.186,332.533,410.207,332.533,412.698z"/>
				<path style="fill:#263238;stroke:#263238;stroke-miterlimit:10;" d="M343.702,412.698c0,2.492-2.143,4.512-4.786,4.512
					c-2.643,0-4.786-2.02-4.786-4.512c0-2.492,2.143-4.512,4.786-4.512C341.559,408.186,343.702,410.207,343.702,412.698z"/>
				<path style="fill:#263238;stroke:#263238;stroke-miterlimit:10;" d="M354.87,412.698c0,2.492-2.143,4.512-4.786,4.512
					s-4.786-2.02-4.786-4.512c0-2.492,2.143-4.512,4.786-4.512S354.87,410.207,354.87,412.698z"/>
				<path style="fill:#263238;stroke:#263238;stroke-miterlimit:10;" d="M366.038,412.698c0,2.492-2.143,4.512-4.786,4.512
					c-2.643,0-4.786-2.02-4.786-4.512c0-2.492,2.143-4.512,4.786-4.512C363.895,408.186,366.038,410.207,366.038,412.698z"/>
				<path style="fill:#263238;stroke:#263238;stroke-miterlimit:10;" d="M377.207,412.698c0,2.492-2.143,4.512-4.786,4.512
					s-4.786-2.02-4.786-4.512c0-2.492,2.143-4.512,4.786-4.512S377.207,410.207,377.207,412.698z"/>
				<path style="fill:#263238;stroke:#263238;stroke-miterlimit:10;" d="M388.375,412.698c0,2.492-2.143,4.512-4.786,4.512
					c-2.643,0-4.786-2.02-4.786-4.512c0-2.492,2.143-4.512,4.786-4.512C386.232,408.186,388.375,410.207,388.375,412.698z"/>
				<path style="fill:#263238;stroke:#263238;stroke-miterlimit:10;" d="M399.543,412.698c0,2.492-2.143,4.512-4.786,4.512
					c-2.643,0-4.786-2.02-4.786-4.512c0-2.492,2.143-4.512,4.786-4.512C397.4,408.186,399.543,410.207,399.543,412.698z"/>
			</g>
			<rect x="274.922" y="412.613" style="fill:#263238;stroke:#263238;stroke-miterlimit:10;" width="127.987" height="16.64"/>
		</g>
		<path style="fill:none;stroke:#263238;stroke-miterlimit:10;" d="M356.135,172.936"/>
	</g>
</g>
</svg>
