<?xml version="1.0" encoding="utf-8"?>
<!-- Generator: Adobe Illustrator 27.5.0, SVG Export Plug-In . SVG Version: 6.00 Build 0)  -->
<svg version="1.1" xmlns="http://www.w3.org/2000/svg" xmlns:xlink="http://www.w3.org/1999/xlink" x="0px" y="0px"
	 viewBox="0 0 500 500" style="enable-background:new 0 0 500 500;" xml:space="preserve">
<g id="BACKGROUND">
	<rect style="fill:#FFFFFF;" width="500" height="500"/>
</g>
<g id="OBJECTS">
	<g>
		<g>
			<g>
				<g>
					<path style="fill:#F8E6E9;stroke:#1E0A05;stroke-width:1.1474;stroke-miterlimit:10;" d="M109.433,202.467l-3.308-34.254
						c0,0-3.837,4.109-8.882,5.06c-5.045,0.951-9.887-2.258-9.948-2.296s-4.073-3.699-4.073-3.699l-2.6,35.324
						c-0.004,0.386-0.047,0.767-0.107,1.141l28.986-0.269C109.458,203.143,109.429,202.808,109.433,202.467z"/>
				</g>
				<path style="fill:#1E0A05;" d="M79.698,165.307c0,0,5.357,20.661,19.42,18.802c10.176-1.346,8.141-20.396,8.141-20.396
					L79.698,165.307z"/>
			</g>
			<g>
				<path style="fill:#F8E6E9;stroke:#1E0A05;stroke-width:1.1474;stroke-miterlimit:10;" d="M77.325,143.158
					c0.146,5.143-3.906,9.431-9.05,9.576c-5.143,0.145-9.431-3.906-9.576-9.05c-0.145-5.143,3.906-9.431,9.05-9.576
					C72.892,133.962,77.179,138.014,77.325,143.158z"/>
			</g>
			<g>
				<path style="fill:#F8E6E9;stroke:#1E0A05;stroke-width:1.1474;stroke-miterlimit:10;" d="M131.438,143.158
					c0.145,5.143-3.906,9.431-9.05,9.576c-5.144,0.145-9.431-3.906-9.576-9.05c-0.145-5.143,3.906-9.431,9.05-9.576
					C127.005,133.962,131.293,138.014,131.438,143.158z"/>
			</g>
			<g>
				<path style="fill:#F8E6E9;stroke:#1E0A05;stroke-width:1.1474;stroke-miterlimit:10;" d="M123.14,128.819
					c0.056,11.156-1.548,20.792-3.165,27.633c-1.583,6.698-6.107,11.396-12.516,15.191l-1.167,0.691
					c-6.781,4.016-15.567,4.153-22.492,0.351l0,0c-6.984-3.835-11.886-8.912-13.423-16.082c-2.795-13.043-3.167-27.502-3.167-27.502
					S63.285,98.926,93.45,99.321C123.615,99.715,123.14,128.819,123.14,128.819z"/>
			</g>
			<g>
				<path style="fill:#1E0A05;" d="M109.065,125.609c0,0,5.947,0.882,5.45,4.135c0,0-0.107,3.384-5.538,2.482
					c-5.431-0.902-8.09-3.63-7.834-5.161C101.503,124.911,106.203,124.91,109.065,125.609z"/>
				<path style="fill:#1E0A05;" d="M79.206,125.609c0,0-5.947,0.882-5.45,4.135c0,0,0.107,3.384,5.538,2.482
					c5.431-0.902,8.09-3.63,7.834-5.161C86.768,124.911,82.067,124.91,79.206,125.609z"/>
				<circle style="fill:#1E0A05;" cx="106.535" cy="139.217" r="2.441"/>
				<circle style="fill:#1E0A05;" cx="82.584" cy="139.217" r="2.441"/>
				
					<polyline style="fill:none;stroke:#000000;stroke-width:1.1474;stroke-linecap:round;stroke-linejoin:round;stroke-miterlimit:10;" points="
					96.057,143.421 96.774,149.514 92.425,149.514 				"/>
				
					<path style="fill:none;stroke:#000000;stroke-width:1.0725;stroke-linecap:round;stroke-linejoin:round;stroke-miterlimit:10;" d="
					M85.536,154.36c0,0,2.739,1.413,8.761,1.413c6.97,0,9.366-1.413,9.366-1.413"/>
				
					<line style="fill:none;stroke:#000000;stroke-width:1.0725;stroke-linecap:round;stroke-linejoin:round;stroke-miterlimit:10;" x1="93.078" y1="160.043" x2="97.227" y2="160.043"/>
			</g>
			<path style="fill:#1E0A05;" d="M118.58,100.813l-24.573-4.439l-23.991,4.439l-2.004,7.441l0.494,8.578
				c0,0,2.379-9.73,10.659-7.792c1.953,0.457,4.29,1.213,7.023,1.725c2.553,0.515,4.986,0.748,7.281,0.785
				c0.271,0.007,0.552,0,0.828,0.002c0.276-0.001,0.557,0.005,0.828-0.002c2.296-0.036,4.728-0.27,7.281-0.785
				c2.733-0.511,5.121-1.112,7.023-1.725c7.676-2.473,10.504,7.349,10.504,7.349l0.65-8.135L118.58,100.813z"/>
			<path style="fill:#1E0A05;" d="M74.767,102.626c0,0-12.096-1.757-14.142,9.2c-2.046,10.957,7.387,31.595,7.387,31.595
				l-1.128-15.949c-0.712-6.893,0.914-13.824,4.617-19.681L74.767,102.626z"/>
			<path style="fill:#1E0A05;" d="M112.869,100.352c0,0,14.717-4.111,16.385,11.474c1.184,11.069-6.767,29.832-6.767,29.832
				l0.246-4.695C123.922,123.973,121.724,115.519,112.869,100.352L112.869,100.352z"/>
			<path style="fill:#1E0A05;" d="M123.79,110.912c0,0-22.89-13.133-54.27-1.045c0,0-14.762-17.836,8.179-24.838
				C97.227,79.07,121.684,93.531,123.79,110.912z"/>
		</g>
		<g>
			<path style="fill:#87F7CD;stroke:#1E0A05;stroke-width:1.1474;stroke-miterlimit:10;" d="M145.495,209.608l-36.259-11.23H95.152
				h-0.144H80.924l-36.259,11.23c0,0-15.49,5.467-15.49,27.336h65.833h0.144h65.833
				C160.986,215.075,145.495,209.608,145.495,209.608z"/>
			<g>
				<path style="fill:#F8E6E9;stroke:#1E0A05;stroke-width:1.1474;stroke-miterlimit:10;" d="M81.517,198.195l-11.689,3.62
					c0,0,3.771,14.44,25.324,14.44s24.13-14.766,24.13-14.766l-11.097-3.437"/>
				<polygon style="fill:#F8E6E9;" points="81.578,197.405 81.136,202.583 89.126,202.315 108.81,201.958 108.359,197.123 				"/>
			</g>
		</g>
	</g>
	<g>
		<g>
			<g>
				<g>
					<path style="fill:#F8E6E9;stroke:#1E0A05;stroke-width:1.1474;stroke-miterlimit:10;" d="M262.012,202.467l-3.308-34.254
						c0,0-3.837,4.109-8.882,5.06c-5.045,0.951-9.887-2.258-9.949-2.296c-0.061-0.039-4.072-3.699-4.072-3.699l-2.6,35.324
						c-0.004,0.386-0.047,0.767-0.107,1.141l28.986-0.269C262.036,203.143,262.008,202.808,262.012,202.467z"/>
				</g>
				<path style="fill:#1E0A05;" d="M232.277,165.307c0,0,5.357,20.661,19.42,18.802c10.176-1.346,8.141-20.396,8.141-20.396
					L232.277,165.307z"/>
			</g>
			<path style="fill:#1E0A05;" d="M230.391,96.492c0,0-8.751-1.34-15.969,9.965c-10.729,16.803,9.149,43.005,9.149,43.005
				L230.391,96.492z"/>
			<g>
				<path style="fill:#F8E6E9;stroke:#1E0A05;stroke-width:1.1474;stroke-miterlimit:10;" d="M229.904,143.158
					c0.145,5.143-3.906,9.431-9.05,9.576c-5.143,0.145-9.431-3.906-9.576-9.05c-0.145-5.143,3.906-9.431,9.05-9.576
					C225.471,133.962,229.758,138.014,229.904,143.158z"/>
			</g>
			<g>
				<path style="fill:#F8E6E9;stroke:#1E0A05;stroke-width:1.1474;stroke-miterlimit:10;" d="M284.017,143.158
					c0.145,5.143-3.906,9.431-9.05,9.576c-5.143,0.145-9.431-3.906-9.576-9.05c-0.146-5.143,3.906-9.431,9.05-9.576
					C279.584,133.962,283.872,138.014,284.017,143.158z"/>
			</g>
			
				<ellipse transform="matrix(0.7997 -0.6004 0.6004 0.7997 -25.6505 173.4964)" style="fill:#1E0A05;" cx="247.178" cy="125.188" rx="33.249" ry="33.249"/>
			<g>
				<path style="fill:#F8E6E9;stroke:#1E0A05;stroke-width:1.1474;stroke-miterlimit:10;" d="M275.719,128.819
					c0.056,11.156-1.548,20.792-3.165,27.633c-1.583,6.698-6.107,11.396-12.516,15.191l-1.167,0.691
					c-6.781,4.016-15.567,4.153-22.492,0.351h0c-6.984-3.835-11.886-8.912-13.423-16.082c-2.795-13.043-3.167-27.502-3.167-27.502
					s-3.926-30.176,26.239-29.781C276.194,99.715,275.719,128.819,275.719,128.819z"/>
			</g>
			<g>
				<path style="fill:#1E0A05;" d="M261.644,125.609c0,0,5.947,0.882,5.45,4.135c0,0-0.107,3.384-5.538,2.482
					c-5.431-0.902-8.09-3.63-7.834-5.161C254.082,124.911,258.782,124.91,261.644,125.609z"/>
				<path style="fill:#1E0A05;" d="M231.785,125.609c0,0-5.947,0.882-5.45,4.135c0,0,0.107,3.384,5.538,2.482
					c5.431-0.902,8.09-3.63,7.834-5.161C239.346,124.911,234.646,124.91,231.785,125.609z"/>
				<circle style="fill:#1E0A05;" cx="259.114" cy="139.217" r="2.441"/>
				<circle style="fill:#1E0A05;" cx="235.163" cy="139.217" r="2.441"/>
				
					<polyline style="fill:none;stroke:#000000;stroke-width:1.1474;stroke-linecap:round;stroke-linejoin:round;stroke-miterlimit:10;" points="
					248.877,145.473 249.353,149.514 246.14,149.514 				"/>
				
					<path style="fill:none;stroke:#000000;stroke-width:1.0725;stroke-linecap:round;stroke-linejoin:round;stroke-miterlimit:10;" d="
					M238.115,154.36c0,0,2.739,1.413,8.761,1.413c6.97,0,9.366-1.413,9.366-1.413"/>
				
					<line style="fill:none;stroke:#000000;stroke-width:1.0725;stroke-linecap:round;stroke-linejoin:round;stroke-miterlimit:10;" x1="245.657" y1="160.043" x2="249.805" y2="160.043"/>
				<g>
					<g>
						
							<path style="fill:none;stroke:#87F7CD;stroke-width:1.3411;stroke-linecap:round;stroke-linejoin:round;stroke-miterlimit:10;" d="
							M220.706,140.587c0.076,6.618,5.388,11.922,11.864,11.847c6.476-0.075,11.664-5.5,11.588-12.118
							c-0.076-6.618-5.388-11.922-11.864-11.847C225.817,128.544,220.629,133.97,220.706,140.587z"/>
					</g>
					<g>
						
							<path style="fill:none;stroke:#87F7CD;stroke-width:1.3411;stroke-linecap:round;stroke-linejoin:round;stroke-miterlimit:10;" d="
							M251.207,140.587c0.076,6.618,5.388,11.922,11.864,11.847c6.476-0.075,11.664-5.5,11.587-12.118
							c-0.076-6.618-5.388-11.922-11.864-11.847C256.319,128.544,251.131,133.97,251.207,140.587z"/>
					</g>
					
						<path style="fill:none;stroke:#87F7CD;stroke-width:1.3411;stroke-linecap:round;stroke-linejoin:round;stroke-miterlimit:10;" d="
						M251.206,140.587c0,0-3.559-2.964-7.049-0.018"/>
				</g>
			</g>
			<path style="fill:#1E0A05;" d="M227.912,99.317c0,0-2.593,16.924,18.229,21.443c0,0-1.287-3.965,0-7.873
				c0,0,3.665,13.332,31.776,9.766C277.916,122.653,270.256,83.752,227.912,99.317z"/>
			<path style="fill:#1E0A05;" d="M229.478,103.62c0,0-1.262,15.854-11.809,22.885C217.669,126.505,216.971,105.05,229.478,103.62z"
				/>
			<path style="fill:#1E0A05;" d="M228.223,100.425c0,0,7.873-17.481,31.423-11.949c34.367,8.073,19.275,46.636,19.275,46.636
				l-3.2-15.853l-15.717-9.809L228.223,100.425z"/>
		</g>
		<g>
			<path style="fill:#DBB7FD;stroke:#1E0A05;stroke-width:1.1474;stroke-miterlimit:10;" d="M298.074,209.608l-36.259-11.23h-14.084
				h-0.144h-14.084l-36.259,11.23c0,0-15.49,5.467-15.49,27.336h65.833h0.144h65.833
				C313.564,215.075,298.074,209.608,298.074,209.608z"/>
			<g>
				<polyline style="fill:#F8E6E9;stroke:#1E0A05;stroke-width:1.1474;stroke-miterlimit:10;" points="234.096,198.195 
					222.407,201.815 247.731,219.23 271.861,201.49 260.764,198.053 				"/>
				<polygon style="fill:#F8E6E9;" points="234.156,197.405 233.715,202.583 241.704,202.315 261.389,201.958 260.938,197.123 				
					"/>
			</g>
		</g>
	</g>
	<g>
		<g>
			<g>
				<g>
					<path style="fill:#F8E6E9;stroke:#1E0A05;stroke-width:1.1474;stroke-miterlimit:10;" d="M415.781,202.467l-3.308-34.254
						c0,0-3.837,4.109-8.882,5.06c-5.045,0.951-9.887-2.258-9.949-2.296c-0.061-0.039-4.073-3.699-4.073-3.699l-2.6,35.324
						c-0.004,0.386-0.047,0.767-0.107,1.141l28.986-0.269C415.805,203.143,415.777,202.808,415.781,202.467z"/>
				</g>
				<path style="fill:#1E0A05;" d="M386.046,165.307c0,0,5.357,20.661,19.42,18.802c10.176-1.346,8.141-20.396,8.141-20.396
					L386.046,165.307z"/>
			</g>
			<path style="fill:#1E0A05;" d="M384.159,96.492c0,0-8.751-2.357-15.969,8.948c-10.729,16.803,9.149,44.022,9.149,44.022
				L384.159,96.492z"/>
			<path style="fill:#1E0A05;" d="M417.974,96.492c0,0,7.734-2.357,14.953,8.948c10.729,16.803-8.132,44.022-8.132,44.022
				L417.974,96.492z"/>
			<g>
				<path style="fill:#F8E6E9;stroke:#1E0A05;stroke-width:1.1474;stroke-miterlimit:10;" d="M383.673,143.158
					c0.145,5.143-3.906,9.431-9.05,9.576s-9.431-3.906-9.576-9.05c-0.145-5.143,3.906-9.431,9.05-9.576
					C379.24,133.962,383.527,138.014,383.673,143.158z"/>
			</g>
			<g>
				<path style="fill:#F8E6E9;stroke:#1E0A05;stroke-width:1.1474;stroke-miterlimit:10;" d="M437.786,143.158
					c0.145,5.143-3.906,9.431-9.05,9.576s-9.431-3.906-9.576-9.05c-0.145-5.143,3.906-9.431,9.05-9.576
					C433.353,133.962,437.64,138.014,437.786,143.158z"/>
			</g>
			
				<ellipse transform="matrix(0.7071 -0.7071 0.7071 0.7071 28.9132 320.1794)" style="fill:#1E0A05;" cx="400.947" cy="125.188" rx="33.249" ry="33.249"/>
			<g>
				<path style="fill:#F8E6E9;stroke:#1E0A05;stroke-width:1.1474;stroke-miterlimit:10;" d="M429.488,128.819
					c0.056,11.156-1.548,20.792-3.165,27.633c-1.583,6.698-6.107,11.396-12.516,15.191l-1.167,0.691
					c-6.781,4.016-15.567,4.153-22.492,0.351l0,0c-6.984-3.835-11.886-8.912-13.423-16.082c-2.795-13.043-3.167-27.502-3.167-27.502
					s-3.926-30.176,26.239-29.781C429.963,99.715,429.488,128.819,429.488,128.819z"/>
			</g>
			<g>
				<path style="fill:#1E0A05;" d="M415.413,125.609c0,0,5.947,0.882,5.45,4.135c0,0-0.107,3.384-5.538,2.482
					c-5.431-0.902-8.09-3.63-7.834-5.161C407.851,124.911,412.551,124.91,415.413,125.609z"/>
				<path style="fill:#1E0A05;" d="M385.554,125.609c0,0-5.947,0.882-5.45,4.135c0,0,0.107,3.384,5.538,2.482
					c5.431-0.902,8.09-3.63,7.834-5.161C393.115,124.911,388.415,124.91,385.554,125.609z"/>
				<circle style="fill:#1E0A05;" cx="412.883" cy="139.217" r="2.441"/>
				<circle style="fill:#1E0A05;" cx="388.932" cy="139.217" r="2.441"/>
				
					<polyline style="fill:none;stroke:#000000;stroke-width:1.1474;stroke-linecap:round;stroke-linejoin:round;stroke-miterlimit:10;" points="
					401.837,139.217 403.122,149.514 399.909,149.514 				"/>
				
					<path style="fill:none;stroke:#000000;stroke-width:1.0725;stroke-linecap:round;stroke-linejoin:round;stroke-miterlimit:10;" d="
					M391.884,154.36c0,0,2.739,1.413,8.761,1.413c6.97,0,9.366-1.413,9.366-1.413"/>
				
					<line style="fill:none;stroke:#000000;stroke-width:1.0725;stroke-linecap:round;stroke-linejoin:round;stroke-miterlimit:10;" x1="399.425" y1="160.043" x2="403.574" y2="160.043"/>
			</g>
			<path style="fill:#1E0A05;" d="M383.247,103.62c0,0-1.262,15.854-11.809,22.885C371.438,126.505,370.74,105.05,383.247,103.62z"
				/>
			<path style="fill:#1E0A05;" d="M441.857,90.922c0,0-8.342,1.439-18.206,1.967c2.857-4.829,1.573-8.027,1.573-8.027
				c-5.668,4.748-19.047-0.493-29.979,0.498c-20.104,1.822-19.939,19.443-19.939,19.443l4.189-0.482
				c1.342,4.637,6.629,15.59,26.534,14.133c19.743-1.445,20.916-2.375,34.672,2.094c0,0-0.533-8.783-5.718-15.501
				C438.558,102.197,441.275,97.766,441.857,90.922z"/>
		</g>
		<g>
			<path style="fill:#F8E63A;stroke:#1E0A05;stroke-width:1.1474;stroke-miterlimit:10;" d="M451.843,209.608l-36.259-11.23H401.5
				h-0.144h-14.084l-36.259,11.23c0,0-15.49,5.467-15.49,27.336h65.833h0.144h65.833
				C467.333,215.075,451.843,209.608,451.843,209.608z"/>
			<g>
				<path style="fill:#F8E6E9;stroke:#1E0A05;stroke-width:1.1474;stroke-miterlimit:10;" d="M387.865,198.195l-11.689,3.62
					l0.613,0.447c14.634,10.651,34.55,10.337,48.841-0.772h0l-11.097-3.437"/>
				<polygon style="fill:#F8E6E9;" points="387.925,197.405 387.483,202.583 395.473,202.315 415.158,201.958 414.707,197.123 				
					"/>
			</g>
		</g>
	</g>
	<g>
		<g>
			<path style="fill:#1E0A05;" d="M71.486,326.706c0,0-23.873,4.837-25.862,23.443c-0.134,1.25-0.118,2.505-0.058,3.76
				c0.226,4.76,0.521,21.536-6.381,23.543c0,0,5.635,0.335,9.471,0c0,0-1.613,6.131-11.507,9.703c0,0,35.304,6.023,34.337-17.065
				c-0.967-23.087-9.005-25.673,2.522-36.738L71.486,326.706z"/>
			<g>
				<g>
					<path style="fill:#F8E6E9;stroke:#1E0A05;stroke-width:1.1177;stroke-miterlimit:10;" d="M106.271,381.71l-2.618-31.197
						c0,0-3.122,4.116-7.218,5.077c-4.096,0.961-8.019-2.238-8.069-2.277c-0.05-0.039-3.298-3.691-3.298-3.691l-2.178,32.278
						c-0.004,0.386-0.039,0.767-0.089,1.141l23.524-0.326C106.29,382.386,106.267,382.051,106.271,381.71z"/>
				</g>
				<path style="fill:#1E0A05;" d="M81.104,344.741c0,0,5.338,18.947,16.832,17.614c9.604-1.113,6.647-20.412,6.647-20.412
					L81.104,344.741z"/>
			</g>
			<g>
				<path style="fill:#F8E6E9;stroke:#1E0A05;stroke-width:1.1474;stroke-miterlimit:10;" d="M75.739,326.465
					c0.133,4.698-3.568,8.615-8.266,8.747c-4.698,0.133-8.615-3.568-8.747-8.266c-0.133-4.698,3.568-8.615,8.266-8.747
					C71.69,318.066,75.606,321.767,75.739,326.465z"/>
			</g>
			<g>
				<path style="fill:#F8E6E9;stroke:#1E0A05;stroke-width:1.1474;stroke-miterlimit:10;" d="M130.665,326.465
					c0.133,4.698-3.568,8.615-8.266,8.747c-4.698,0.133-8.615-3.568-8.748-8.266c-0.133-4.698,3.568-8.615,8.266-8.747
					C126.616,318.066,130.532,321.767,130.665,326.465z"/>
			</g>
			<circle style="fill:#1E0A05;" cx="95.08" cy="305.075" r="33.79"/>
			<g>
				<path style="fill:#F8E6E9;stroke:#1E0A05;stroke-width:1.1177;stroke-miterlimit:10;" d="M123.142,311.346
					c0.012,1.755-1.963,18.314-3.805,24.747c-2.526,8.826-13.454,16.626-13.454,16.626c-6.782,3.813-14.551,3.945-21.475,0.339
					c0,0-11.529-7.392-13.308-16.896c-2.334-12.471-3.888-24.533-3.888-24.533s-2.902-28.635,27.263-28.268
					C124.642,283.728,123.142,311.346,123.142,311.346z"/>
			</g>
			<g>
				<path style="fill:#1E0A05;" d="M109.538,307.871c0,0,5.947,0.753,5.45,3.528c0,0-0.107,2.887-5.538,2.117
					c-5.431-0.77-8.09-3.097-7.834-4.403C101.976,307.276,106.677,307.275,109.538,307.871z"/>
				<path style="fill:#1E0A05;" d="M79.679,307.871c0,0-5.947,0.753-5.45,3.528c0,0,0.107,2.887,5.538,2.117
					c5.431-0.77,8.09-3.097,7.834-4.403C87.241,307.276,82.54,307.275,79.679,307.871z"/>
				<circle style="fill:#1E0A05;" cx="106.535" cy="321.54" r="2.441"/>
				<circle style="fill:#1E0A05;" cx="82.584" cy="321.54" r="2.441"/>
				
					<polyline style="fill:none;stroke:#000000;stroke-width:1.1474;stroke-linecap:round;stroke-linejoin:round;stroke-miterlimit:10;" points="
					95.433,325.689 96.037,330.821 93.18,330.821 				"/>
				
					<path style="fill:none;stroke:#000000;stroke-width:1.0725;stroke-linecap:round;stroke-linejoin:round;stroke-miterlimit:10;" d="
					M87.618,335.977c0,0,2.691,1.414,6.679,1.414c4.056,0,7.302-1.414,7.302-1.414"/>
			</g>
			<path style="fill:#1E0A05;" d="M64.861,312.129c0,0,12.356-4.023,9.339-24.139C74.2,287.99,62.489,297.553,64.861,312.129z"/>
			<path style="fill:#1E0A05;" d="M74.2,287.99c0,0-3.657,9.196,20.946,13.794c0,0-4.134-3.736-5.571-8.334
				c0,0,14.081,11.782,35.347,8.334C124.921,301.784,111.701,261.84,74.2,287.99z"/>
		</g>
		<g>
			<path style="fill:#F8E63A;stroke:#1E0A05;stroke-width:1.1474;stroke-miterlimit:10;" d="M145.495,388.881l-36.259-11.23H95.152
				h-0.144H80.924l-36.259,11.23c0,0-15.49,5.467-15.49,27.336h65.833h0.144h65.833
				C160.986,394.348,145.495,388.881,145.495,388.881z"/>
			<g>
				<g>
					<path style="fill:#F8E6E9;stroke:#1E0A05;stroke-width:1.1474;stroke-miterlimit:10;" d="M85.449,376.25l-21.932,6.792
						c0,0,10.081,8.553,31.635,8.553s32.803-8.146,32.803-8.146l-23.061-7.353"/>
				</g>
				<polygon style="fill:#F8E6E9;" points="83.862,375.619 83.725,379.183 105.474,378.614 105.135,374.961 				"/>
			</g>
		</g>
	</g>
	<g>
		<g>
			<path style="fill:#1E0A05;" d="M296.448,358.627c-0.32-2.752-0.109-5.574,0.562-8.226c3.41-13.478-0.491-24.959-7.378-33.537
				c-6.23-7.76-7.783-19.24-7.783-19.24l0,0c-4.576-15.55-20.078-26.338-34.189-26.338c-14.11,0-29.565,10.166-34.141,25.716l0,0
				c0,0-2.065,12.311-7.831,19.862c-6.676,8.743-10.788,20.059-7.378,33.537c0.671,2.652,0.882,5.475,0.562,8.226
				c-0.236,2.033-0.774,4.142-1.901,5.602h101.379C297.222,362.769,296.684,360.66,296.448,358.627z"/>
			<g>
				<g>
					<path style="fill:#F8E6E9;stroke:#1E0A05;stroke-width:1.1177;stroke-miterlimit:10;" d="M258.85,381.71l-2.618-31.197
						c0,0-3.122,4.116-7.218,5.077c-4.096,0.961-8.019-2.238-8.069-2.277c-0.05-0.039-3.298-3.691-3.298-3.691l-2.178,32.278
						c-0.004,0.386-0.039,0.767-0.089,1.141l23.524-0.326C258.868,382.386,258.846,382.051,258.85,381.71z"/>
				</g>
				<path style="fill:#1E0A05;" d="M233.683,344.741c0,0,5.338,18.947,16.832,17.614c9.604-1.113,6.647-20.412,6.647-20.412
					L233.683,344.741z"/>
			</g>
			<g>
				<path style="fill:#F8E6E9;stroke:#1E0A05;stroke-width:1.1474;stroke-miterlimit:10;" d="M228.318,326.465
					c0.133,4.698-3.568,8.615-8.266,8.747c-4.698,0.133-8.615-3.568-8.747-8.266c-0.133-4.698,3.568-8.615,8.266-8.747
					C224.269,318.066,228.185,321.767,228.318,326.465z"/>
			</g>
			<g>
				<path style="fill:#F8E6E9;stroke:#1E0A05;stroke-width:1.1474;stroke-miterlimit:10;" d="M283.244,326.465
					c0.133,4.698-3.568,8.615-8.266,8.747c-4.698,0.133-8.615-3.568-8.747-8.266c-0.133-4.698,3.568-8.615,8.266-8.747
					C279.195,318.066,283.111,321.767,283.244,326.465z"/>
			</g>
			<circle style="fill:#1E0A05;" cx="247.659" cy="306.075" r="33.79"/>
			<g>
				<path style="fill:#F8E6E9;stroke:#1E0A05;stroke-width:1.1177;stroke-miterlimit:10;" d="M275.721,311.346
					c0.012,1.755-1.963,18.314-3.805,24.747c-2.527,8.826-13.454,16.626-13.454,16.626c-6.782,3.813-14.551,3.945-21.475,0.339
					c0,0-11.529-7.392-13.308-16.896c-2.334-12.471-3.888-24.533-3.888-24.533s-2.902-28.635,27.263-28.268
					C277.22,283.728,275.721,311.346,275.721,311.346z"/>
			</g>
			<g>
				<path style="fill:#1E0A05;" d="M262.117,307.871c0,0,5.947,0.753,5.45,3.528c0,0-0.107,2.887-5.538,2.117
					c-5.431-0.77-8.09-3.097-7.834-4.403C254.555,307.276,259.255,307.275,262.117,307.871z"/>
				<path style="fill:#1E0A05;" d="M232.258,307.871c0,0-5.947,0.753-5.45,3.528c0,0,0.107,2.887,5.538,2.117
					c5.431-0.77,8.09-3.097,7.834-4.403C239.819,307.276,235.119,307.275,232.258,307.871z"/>
				<circle style="fill:#1E0A05;" cx="259.114" cy="321.54" r="2.441"/>
				<circle style="fill:#1E0A05;" cx="235.163" cy="321.54" r="2.441"/>
				
					<polyline style="fill:none;stroke:#000000;stroke-width:1.1474;stroke-linecap:round;stroke-linejoin:round;stroke-miterlimit:10;" points="
					248.012,325.689 248.616,330.821 245.759,330.821 				"/>
				
					<path style="fill:none;stroke:#000000;stroke-width:1.0725;stroke-linecap:round;stroke-linejoin:round;stroke-miterlimit:10;" d="
					M240.197,335.977c0,0,2.691,1.414,6.679,1.414c4.056,0,7.302-1.414,7.302-1.414"/>
			</g>
			<path style="fill:#1E0A05;" d="M218.466,306.422c0,0,28.594-6.273,28.589-23.06C247.055,283.361,217.899,270.308,218.466,306.422
				z"/>
			<path style="fill:#1E0A05;" d="M274.909,306.422c0,0-28.594-5.268-28.589-23.06C246.319,283.361,275.476,270.308,274.909,306.422
				z"/>
		</g>
		<g>
			<path style="fill:#87F7CD;stroke:#1E0A05;stroke-width:1.1474;stroke-miterlimit:10;" d="M298.074,388.881l-36.259-11.23h-14.084
				h-0.144h-14.084l-36.259,11.23c0,0-15.49,5.467-15.49,27.336h65.833h0.144h65.833
				C313.564,394.348,298.074,388.881,298.074,388.881z"/>
			<g>
				<g>
					<path style="fill:#F8E6E9;stroke:#1E0A05;stroke-width:1.1474;stroke-miterlimit:10;" d="M238.028,376.25l-21.932,6.792
						c0,0,7.311,17.553,32.635,17.553c26.973,0,30.529-17.553,30.529-17.553l-21.786-6.946"/>
				</g>
				<polygon style="fill:#F8E6E9;" points="236.441,375.619 236.304,379.183 258.053,378.614 257.714,374.961 				"/>
			</g>
		</g>
	</g>
	<g>
		<g>
			<path style="fill:#1E0A05;" d="M374.6,285.54c0,0,14.076-20.631,38.537-15.381c23.88,5.125,32.273,25.216,25.318,44.423
				c-3.047,8.414,19.783,16.673,8.234,33.357c-5.468,7.899-6.528,15.342,0.704,19.192c11.683,6.219,20.267,27.387-9.087,31.103
				c-29.355,3.716-37.559-12.355-37.559-12.355L374.6,285.54z"/>
			<path style="fill:#1E0A05;" d="M382.152,281.329c0,0-14.514,0-20.553,16.414c-6.47,17.583,5.235,24.699,6.267,36.078
				s-34.665,44.14,4.62,62.515c28.685,13.416,29.9-21.519,29.9-21.519L382.152,281.329z"/>
			<g>
				<g>
					<path style="fill:#F8E6E9;stroke:#1E0A05;stroke-width:1.1177;stroke-miterlimit:10;" d="M412.619,381.71L410,350.513
						c0,0-3.122,4.116-7.218,5.077c-4.096,0.961-8.019-2.238-8.069-2.277c-0.05-0.039-3.298-3.691-3.298-3.691l-2.178,32.278
						c-0.004,0.386-0.039,0.767-0.089,1.141l23.524-0.326C412.637,382.386,412.615,382.051,412.619,381.71z"/>
				</g>
				<path style="fill:#1E0A05;" d="M387.452,344.741c0,0,5.338,18.947,16.832,17.614c9.603-1.113,6.647-20.412,6.647-20.412
					L387.452,344.741z"/>
			</g>
			<g>
				<path style="fill:#F8E6E9;stroke:#1E0A05;stroke-width:1.1474;stroke-miterlimit:10;" d="M382.087,326.465
					c0.133,4.698-3.568,8.615-8.266,8.747c-4.698,0.133-8.615-3.568-8.747-8.266c-0.133-4.698,3.568-8.615,8.266-8.747
					C378.038,318.066,381.954,321.767,382.087,326.465z"/>
			</g>
			<g>
				<path style="fill:#F8E6E9;stroke:#1E0A05;stroke-width:1.1474;stroke-miterlimit:10;" d="M437.013,326.465
					c0.133,4.698-3.568,8.615-8.266,8.747c-4.698,0.133-8.615-3.568-8.747-8.266c-0.133-4.698,3.568-8.615,8.266-8.747
					C432.964,318.066,436.88,321.767,437.013,326.465z"/>
			</g>
			<circle style="fill:#1E0A05;" cx="401.428" cy="306.075" r="33.79"/>
			<g>
				<path style="fill:#F8E6E9;stroke:#1E0A05;stroke-width:1.1177;stroke-miterlimit:10;" d="M429.49,311.346
					c0.012,1.755-1.963,18.314-3.805,24.747c-2.526,8.826-13.454,16.626-13.454,16.626c-6.782,3.813-14.552,3.945-21.475,0.339
					c0,0-11.529-7.392-13.308-16.896c-2.334-12.471-3.888-24.533-3.888-24.533s-2.902-28.635,27.264-28.268
					C430.989,283.728,429.49,311.346,429.49,311.346z"/>
			</g>
			<g>
				<path style="fill:#1E0A05;" d="M415.886,307.871c0,0,5.947,0.753,5.45,3.528c0,0-0.107,2.887-5.538,2.117
					c-5.431-0.77-8.09-3.097-7.834-4.403C408.324,307.276,413.024,307.275,415.886,307.871z"/>
				<path style="fill:#1E0A05;" d="M386.027,307.871c0,0-5.947,0.753-5.45,3.528c0,0,0.107,2.887,5.538,2.117
					c5.431-0.77,8.09-3.097,7.834-4.403C393.588,307.276,388.888,307.275,386.027,307.871z"/>
				<circle style="fill:#1E0A05;" cx="412.883" cy="321.54" r="2.441"/>
				<circle style="fill:#1E0A05;" cx="388.932" cy="321.54" r="2.441"/>
				
					<polyline style="fill:none;stroke:#000000;stroke-width:1.1474;stroke-linecap:round;stroke-linejoin:round;stroke-miterlimit:10;" points="
					401.781,325.689 402.385,330.821 399.528,330.821 				"/>
				
					<path style="fill:none;stroke:#000000;stroke-width:1.0725;stroke-linecap:round;stroke-linejoin:round;stroke-miterlimit:10;" d="
					M393.966,335.977c0,0,2.691,1.414,6.679,1.414c4.056,0,7.302-1.414,7.302-1.414"/>
			</g>
			<path style="fill:#1E0A05;" d="M372.235,306.422c0,0,8.349-4.005,16.697-27.091C388.932,279.331,372.223,276.603,372.235,306.422
				z"/>
			<path style="fill:#1E0A05;" d="M429.678,306.422c0,0-64.039-0.347-42.746-27.091
				C386.932,279.331,430.245,270.308,429.678,306.422z"/>
		</g>
		<g>
			<path style="fill:#DBB7FD;stroke:#1E0A05;stroke-width:1.1474;stroke-miterlimit:10;" d="M451.843,388.881l-36.259-11.23H401.5
				h-0.144h-14.084l-36.259,11.23c0,0-15.49,5.467-15.49,27.336h65.833h0.144h65.833
				C467.333,394.348,451.843,388.881,451.843,388.881z"/>
			<g>
				<g>
					<polyline style="fill:#F8E6E9;stroke:#1E0A05;stroke-width:1.1474;stroke-miterlimit:10;" points="391.797,376.25 
						369.865,383.043 401.5,398.595 434.303,383.449 411.242,376.096 					"/>
				</g>
				<polygon style="fill:#F8E6E9;" points="390.21,375.619 390.073,379.183 411.822,378.614 411.483,374.961 				"/>
			</g>
		</g>
	</g>
</g>
</svg>
